<svg width="32" height="32" viewBox="0 0 32 32" fill="none" xmlns="http://www.w3.org/2000/svg">
<path fill-rule="evenodd" clip-rule="evenodd" d="M18.7597 22.3427C18.239 22.8634 17.3948 22.8634 16.8741 22.3427L10.6651 16.1337L16.8741 9.92471C17.3948 9.40401 18.239 9.40401 18.7597 9.92471C19.2804 10.4454 19.2804 11.2896 18.7597 11.8103L14.4363 16.1337L18.7597 20.4571C19.2804 20.9778 19.2804 21.822 18.7597 22.3427Z" fill="#1A1A1A"/>
<path d="M16 31C24.2843 31 31 24.2843 31 16H33C33 25.3888 25.3888 33 16 33V31ZM1 16C1 24.2843 7.71573 31 16 31V33C6.61116 33 -1 25.3888 -1 16H1ZM16 1C7.71573 1 1 7.71573 1 16H-1C-1 6.61116 6.61116 -1 16 -1V1ZM16 -1C25.3888 -1 33 6.61116 33 16H31C31 7.71573 24.2843 1 16 1V-1Z" fill="#E6E4E7"/>
</svg>
