<svg width="32" height="32" viewBox="0 0 32 32" fill="none" xmlns="http://www.w3.org/2000/svg">
<path fill-rule="evenodd" clip-rule="evenodd" d="M13.2403 22.3427C13.761 22.8634 14.6052 22.8634 15.1259 22.3427L21.3349 16.1337L15.1259 9.92471C14.6052 9.40401 13.761 9.40401 13.2403 9.92471C12.7196 10.4454 12.7196 11.2896 13.2403 11.8103L17.5637 16.1337L13.2403 20.4571C12.7196 20.9778 12.7196 21.822 13.2403 22.3427Z" fill="#1A1A1A"/>
<path d="M16 31C7.71573 31 1 24.2843 1 16H-1C-1 25.3888 6.61116 33 16 33V31ZM31 16C31 24.2843 24.2843 31 16 31V33C25.3888 33 33 25.3888 33 16H31ZM16 1C24.2843 1 31 7.71573 31 16H33C33 6.61116 25.3888 -1 16 -1V1ZM16 -1C6.61116 -1 -1 6.61116 -1 16H1C1 7.71573 7.71573 1 16 1V-1Z" fill="#1A1A1A"/>
</svg>
