<svg width="16" height="16" viewBox="0 0 16 16" fill="none" xmlns="http://www.w3.org/2000/svg">
<path fill-rule="evenodd" clip-rule="evenodd" d="M1.63456 7.5771C0.593166 8.6185 0.593167 10.3069 1.63456 11.3483L4.65155 14.3653C5.69295 15.4067 7.38139 15.4067 8.42279 14.3653L14.2963 8.49186C14.5589 8.22923 14.7001 7.86895 14.6858 7.49781L14.5042 2.77678C14.4774 2.08064 13.9193 1.52245 13.2231 1.49568L8.50208 1.3141C8.13094 1.29982 7.77066 1.441 7.50803 1.70364L1.63456 7.5771ZM11.6007 5.44348C12.2634 5.44348 12.8007 4.90622 12.8007 4.24348C12.8007 3.58074 12.2634 3.04348 11.6007 3.04348C10.938 3.04348 10.4007 3.58074 10.4007 4.24348C10.4007 4.90622 10.938 5.44348 11.6007 5.44348Z" fill="#1A1A1A"/>
</svg>
