<svg width="28" height="28" viewBox="0 0 28 28" fill="none" xmlns="http://www.w3.org/2000/svg">
<path fill-rule="evenodd" clip-rule="evenodd" d="M14 17.6667C14.5523 17.6667 15 18.1145 15 18.6667L15 25.6667C15 26.219 14.5523 26.6667 14 26.6667C13.4477 26.6667 13 26.219 13 25.6667L13 18.6667C13 18.1145 13.4477 17.6667 14 17.6667Z" fill="#1A1A1A"/>
<path fill-rule="evenodd" clip-rule="evenodd" d="M20.8139 24.6961C20.7056 25.2376 20.1787 25.5888 19.6372 25.4805L15.3728 24.6276C14.4665 24.4464 13.5334 24.4464 12.6272 24.6276L8.36275 25.4805C7.82119 25.5888 7.29437 25.2376 7.18606 24.6961C7.07774 24.1545 7.42896 23.6277 7.97052 23.5194L12.2349 22.6665C13.4001 22.4334 14.5999 22.4334 15.765 22.6665L20.0294 23.5194C20.571 23.6277 20.9222 24.1545 20.8139 24.6961Z" fill="#1A1A1A"/>
<path fill-rule="evenodd" clip-rule="evenodd" d="M5.55339 13.04C6.08358 12.8854 6.63875 13.1898 6.79339 13.72L7.4861 16.095C7.57871 16.4125 7.84549 16.6486 8.17192 16.7019C12.0318 17.3321 15.9683 17.3321 19.8282 16.7019C20.1546 16.6486 20.4214 16.4125 20.514 16.095L21.2067 13.72C21.3614 13.1898 21.9165 12.8854 22.4467 13.04C22.9769 13.1947 23.2814 13.7498 23.1267 14.28L22.434 16.655C22.1257 17.7123 21.2374 18.4983 20.1505 18.6758C16.0772 19.3408 11.923 19.3408 7.84966 18.6758C6.76276 18.4983 5.87446 17.7123 5.5661 16.655L4.87339 14.28C4.71875 13.7498 5.0232 13.1947 5.55339 13.04Z" fill="#1A1A1A"/>
<path fill-rule="evenodd" clip-rule="evenodd" d="M18.8264 3.16675H9.1736L10.0342 13.4937C12.6581 13.9523 15.3419 13.9523 17.9658 13.4937L18.8264 3.16675ZM9.1736 1.16675C8.00352 1.16675 7.08334 2.1668 7.18051 3.33284L8.08844 14.228C8.13477 14.7839 8.54336 15.2421 9.09035 15.3515C12.3314 15.9997 15.6686 15.9997 18.9096 15.3515C19.4566 15.2421 19.8652 14.7839 19.9116 14.228L20.8195 3.33284C20.9167 2.1668 19.9965 1.16675 18.8264 1.16675H9.1736Z" fill="#1A1A1A"/>
<path fill-rule="evenodd" clip-rule="evenodd" d="M21.1666 14C21.1666 13.4477 21.6143 13 22.1666 13H23.3333C23.8856 13 24.3333 13.4477 24.3333 14C24.3333 14.5523 23.8856 15 23.3333 15H22.1666C21.6143 15 21.1666 14.5523 21.1666 14Z" fill="#1A1A1A"/>
<path fill-rule="evenodd" clip-rule="evenodd" d="M3.66663 14C3.66663 13.4477 4.11434 13 4.66663 13H5.83329C6.38558 13 6.83329 13.4477 6.83329 14C6.83329 14.5523 6.38558 15 5.83329 15H4.66663C4.11434 15 3.66663 14.5523 3.66663 14Z" fill="#1A1A1A"/>
</svg>
