<svg width="20" height="19" viewBox="0 0 20 19" fill="none" xmlns="http://www.w3.org/2000/svg">
<path fill-rule="evenodd" clip-rule="evenodd" d="M14.7719 12.3558L17.3119 12.6458C18.3219 12.7658 19.0819 13.6158 19.0719 14.6258L18.8876 16.936C18.8876 18.066 17.9476 19.006 16.8176 18.936C15.0096 18.8237 13.2781 18.4288 11.6667 17.7949C11.3091 17.6542 10.9574 17.5017 10.6121 17.338C7.05983 15.6533 4.18457 12.7728 2.50759 9.21444C2.34368 8.86664 2.19122 8.51237 2.05069 8.1521C1.4273 6.55394 1.03876 4.83784 0.927563 3.04604C0.857563 1.91604 1.79756 0.976035 2.92756 0.976035L5.42938 0.763245C6.44938 0.763245 7.29938 1.52324 7.41938 2.53324L7.70938 5.05324C7.77938 5.66324 7.56938 6.26324 7.13938 6.69324L4.51756 8.75603C5.95756 11.596 8.27756 13.906 11.1076 15.346L13.1319 12.9258C13.5619 12.4958 14.1619 12.2858 14.7719 12.3558ZM14.5532 14.3438L17.0652 14.6306L16.8876 16.8564V16.936C16.8876 16.9359 16.8876 16.9362 16.8876 16.936C15.5459 16.8478 14.2523 16.5835 13.0297 16.1653L14.5532 14.3438ZM5.72052 5.26476L5.43344 2.77012L3.01246 2.97603H2.92756C2.92743 2.97603 2.92769 2.97603 2.92756 2.97603C3.01608 4.32448 3.28239 5.624 3.70394 6.85136L5.72052 5.26476Z" fill="#1A1A1A"/>
</svg>
