<svg width="28" height="28" viewBox="0 0 28 28" fill="none" xmlns="http://www.w3.org/2000/svg">
<path d="M15.75 13.4167C15.75 14.3832 14.9665 15.1667 14 15.1667C13.0335 15.1667 12.25 14.3832 12.25 13.4167C12.25 12.4502 13.0335 11.6667 14 11.6667C14.9665 11.6667 15.75 12.4502 15.75 13.4167Z" fill="#1A1A1A"/>
<path fill-rule="evenodd" clip-rule="evenodd" d="M14 14.1667C14.4142 14.1667 14.75 13.831 14.75 13.4167C14.75 13.0025 14.4142 12.6667 14 12.6667C13.5858 12.6667 13.25 13.0025 13.25 13.4167C13.25 13.831 13.5858 14.1667 14 14.1667ZM14 15.1667C14.9665 15.1667 15.75 14.3832 15.75 13.4167C15.75 12.4502 14.9665 11.6667 14 11.6667C13.0335 11.6667 12.25 12.4502 12.25 13.4167C12.25 14.3832 13.0335 15.1667 14 15.1667Z" fill="#1A1A1A"/>
<path fill-rule="evenodd" clip-rule="evenodd" d="M1.83716 9.63168C2.31668 9.35767 2.92753 9.52427 3.20154 10.0038L7.63267 17.7582C11.8485 18.4606 16.1515 18.4606 20.3673 17.7582L24.7984 10.0038C25.0724 9.52427 25.6833 9.35767 26.1628 9.63168C26.6423 9.90569 26.8089 10.5165 26.5349 10.9961L22.1023 18.7531C21.8051 19.2732 21.2898 19.6321 20.699 19.7305C16.2636 20.4698 11.7364 20.4698 7.30093 19.7305C6.71009 19.6321 6.19484 19.2732 5.89766 18.7531L1.46506 10.9961C1.19105 10.5165 1.35764 9.90569 1.83716 9.63168ZM20.3658 17.7607C20.3658 17.7608 20.3658 17.7608 20.3658 17.7608L20.3712 17.764L20.3658 17.7608L20.3658 17.7607Z" fill="#1A1A1A"/>
<path fill-rule="evenodd" clip-rule="evenodd" d="M14 2.5C14.5523 2.5 15 2.94772 15 3.5V7C15 7.55228 14.5523 8 14 8C13.4477 8 13 7.55228 13 7V3.5C13 2.94772 13.4477 2.5 14 2.5Z" fill="#1A1A1A"/>
<path fill-rule="evenodd" clip-rule="evenodd" d="M21.1179 4.89773C21.6348 5.09222 21.8962 5.66893 21.7017 6.18583L20.5968 9.12217C20.4023 9.63908 19.8256 9.90044 19.3087 9.70594C18.7918 9.51144 18.5304 8.93474 18.7249 8.41783L19.8298 5.48149C20.0243 4.96459 20.601 4.70323 21.1179 4.89773Z" fill="#1A1A1A"/>
<path fill-rule="evenodd" clip-rule="evenodd" d="M6.88032 4.89734C7.39723 4.70288 7.97392 4.96427 8.16839 5.48119L9.27328 8.4181C9.46774 8.93501 9.20635 9.5117 8.68943 9.70617C8.17252 9.90064 7.59583 9.63924 7.40136 9.12233L6.29647 6.18542C6.10201 5.6685 6.3634 5.09181 6.88032 4.89734Z" fill="#1A1A1A"/>
<path fill-rule="evenodd" clip-rule="evenodd" d="M12.9871 5.62309C13.4044 4.78839 14.5956 4.7884 15.0129 5.62309L15.4131 6.42339C16.1077 7.81256 17.8626 8.27861 19.1549 7.41708C19.7798 7.00048 20.6294 7.31277 20.8357 8.03491L21 8.60992C21.4465 10.1726 22.8748 11.25 24.5 11.25V13.25C22.1377 13.25 20.0438 11.7809 19.2226 9.60003C17.3293 10.2583 15.185 9.59845 14 7.942C12.815 9.59845 10.6707 10.2583 8.77742 9.60003C7.95617 11.7809 5.86234 13.25 3.5 13.25V11.25C5.12521 11.25 6.55352 10.1726 7 8.60992L7.16429 8.03491C7.37062 7.31277 8.2202 7.00048 8.8451 7.41708C10.1374 8.27861 11.8923 7.81256 12.5869 6.42338L12.9871 5.62309Z" fill="#1A1A1A"/>
<path fill-rule="evenodd" clip-rule="evenodd" d="M21.0278 23.4978C21.1186 24.0425 20.7507 24.559 20.204 24.6373C16.0893 25.2267 11.9115 25.2267 7.7968 24.6373C7.25009 24.559 6.8822 24.0425 6.97299 23.4978L7.02779 23.169C7.11859 22.6242 7.63369 22.2574 8.18049 22.3351C12.0411 22.883 15.9597 22.883 19.8203 22.3351C20.3671 22.2574 20.8822 22.6242 20.973 23.169L21.0278 23.4978Z" fill="#1A1A1A"/>
</svg>
