<svg width="28" height="28" viewBox="0 0 28 28" fill="none" xmlns="http://www.w3.org/2000/svg">
<path fill-rule="evenodd" clip-rule="evenodd" d="M11.8852 24.6647C13.2397 24.6802 14.5802 24.6089 15.7554 24.461C16.8502 24.3233 17.7191 24.1292 18.3054 23.9168C18.2967 23.9136 18.2879 23.9105 18.279 23.9073C17.622 23.6732 16.6392 23.4678 15.419 23.3327C14.2085 23.1988 12.8523 23.1438 11.5038 23.1755C10.154 23.2073 8.88243 23.3244 7.8306 23.5091C6.75017 23.6988 6.04032 23.9365 5.69361 24.1419C5.21844 24.4234 4.60505 24.2664 4.32356 23.7912C4.04207 23.3161 4.19907 22.7027 4.67424 22.4212C5.34101 22.0262 6.34318 21.7397 7.48466 21.5392C8.65474 21.3337 10.0287 21.2097 11.4567 21.1761C12.8859 21.1424 14.3318 21.2002 15.6389 21.3449C16.9363 21.4884 18.0891 21.7165 18.9502 22.0233C19.3774 22.1755 19.7752 22.3616 20.0911 22.5969C20.3887 22.8186 20.7611 23.1964 20.8245 23.7591C20.8926 24.363 20.5706 24.8164 20.2736 25.0866C19.9779 25.3557 19.5923 25.5587 19.1922 25.7189C18.3815 26.0435 17.2685 26.2864 16.005 26.4454C14.7288 26.606 13.2964 26.681 11.8622 26.6645C11.31 26.6582 10.8674 26.2054 10.8738 25.6531C10.8801 25.1009 11.3329 24.6583 11.8852 24.6647Z" fill="#1A1A1A"/>
<path fill-rule="evenodd" clip-rule="evenodd" d="M10.6769 1.02396C10.7557 0.477322 11.2627 0.0980653 11.8093 0.176864C13.8139 0.465833 15.5156 1.10599 16.9968 2.22436C18.4698 3.33661 19.6643 4.87638 20.7289 6.87254C21.474 8.26968 21.8124 10.0398 21.9369 11.825C22.0625 13.6267 21.9754 15.5329 21.8085 17.2593C21.6412 18.9893 21.3916 20.5606 21.1841 21.6985C21.0802 22.2682 20.9867 22.7309 20.9187 23.0525C20.8847 23.2133 20.8572 23.339 20.8379 23.4253C20.8283 23.4684 20.8207 23.5017 20.8154 23.5246L20.8093 23.5511L20.8072 23.5605C20.8071 23.5607 20.8069 23.5616 19.8333 23.3333L20.8069 23.5616C20.6808 24.0993 20.1427 24.433 19.605 24.3069C19.0674 24.1808 18.7337 23.6428 18.8597 23.1052L18.861 23.0994L18.866 23.0779L18.886 22.9891C18.9037 22.91 18.9296 22.792 18.9619 22.6391C19.0265 22.3334 19.1164 21.8891 19.2165 21.3398C19.4171 20.2399 19.6573 18.7262 19.8178 17.0668C19.9785 15.404 20.057 13.6168 19.9417 11.9641C19.8254 10.295 19.5167 8.8497 18.9642 7.81367C17.9884 5.98407 16.9633 4.7052 15.7916 3.82046C14.628 2.94184 13.2598 2.40663 11.524 2.1564C10.9773 2.0776 10.5981 1.57059 10.6769 1.02396Z" fill="#1A1A1A"/>
<path fill-rule="evenodd" clip-rule="evenodd" d="M11.6666 0.166748C12.2189 0.166748 12.6666 0.614463 12.6666 1.16675V5.83341C12.6666 6.3857 12.2189 6.83341 11.6666 6.83341C11.1143 6.83341 10.6666 6.3857 10.6666 5.83341V1.16675C10.6666 0.614463 11.1143 0.166748 11.6666 0.166748Z" fill="#1A1A1A"/>
<path d="M11.0833 3.5L12.4343 4.12438C16.3333 5.83333 15.6814 12.3798 14.4541 15.8183C13.371 18.8524 10.0334 20.4341 6.99924 19.3511L3.5 18.0833L11.0833 3.5Z" fill="white"/>
<path fill-rule="evenodd" clip-rule="evenodd" d="M12.4343 4.12438L11.0833 3.5L3.5 18.0833L6.99924 19.3511C10.0334 20.4341 13.371 18.8524 14.4541 15.8183C15.6814 12.3798 16.3333 5.83333 12.4343 4.12438ZM6.32767 16.9806L7.67561 17.469C9.66841 18.1778 11.8592 17.1385 12.5705 15.1459C13.1079 13.6403 13.5186 11.4255 13.3722 9.47232C13.2392 7.69952 12.7106 6.64612 11.9646 6.14024L6.32767 16.9806Z" fill="#1A1A1A"/>
<path d="M11.0825 3.5C14.5825 3.50019 9.14056 20.1985 3.49931 18.0833C-2.14201 15.9681 7.30089 3.49979 11.0825 3.5Z" fill="white"/>
<path fill-rule="evenodd" clip-rule="evenodd" d="M3.83576 15.9481C3.86146 15.999 3.91808 16.1044 4.20146 16.2106C4.5025 16.3235 5.09269 16.3483 6.13129 15.2937C7.13299 14.2766 8.11179 12.6431 8.87252 10.8161C9.63086 8.9949 10.0854 7.19148 10.1723 5.93797C10.1724 5.93613 10.1725 5.9343 10.1726 5.93246C9.78249 6.18142 9.33472 6.5265 8.85053 6.96442C7.66636 8.03543 6.42353 9.51689 5.44996 11.0637C4.45197 12.6494 3.86694 14.0979 3.76193 15.1173C3.71155 15.6063 3.78681 15.8511 3.83576 15.9481ZM11.0825 3.5C14.5825 3.50019 9.14056 20.1985 3.49931 18.0833C-2.14201 15.9681 7.30089 3.49979 11.0825 3.5Z" fill="#1A1A1A"/>
</svg>
