<svg width="40" height="40" viewBox="0 0 40 40" fill="none" xmlns="http://www.w3.org/2000/svg">
<path d="M0 0H32C36.4183 0 40 3.58172 40 8V32C40 36.4183 36.4183 40 32 40H0V0Z" fill="#EE2A74"/>
<path fill-rule="evenodd" clip-rule="evenodd" d="M18.5 25C22.0899 25 25 22.0899 25 18.5C25 14.9101 22.0899 12 18.5 12C14.9101 12 12 14.9101 12 18.5C12 22.0899 14.9101 25 18.5 25ZM18.5 27C23.1944 27 27 23.1944 27 18.5C27 13.8056 23.1944 10 18.5 10C13.8056 10 10 13.8056 10 18.5C10 23.1944 13.8056 27 18.5 27Z" fill="white"/>
<path fill-rule="evenodd" clip-rule="evenodd" d="M25.7071 25.2929C26.0976 24.9024 26.7308 24.9024 27.1213 25.2929L29.7071 27.8787C30.0976 28.2692 30.0976 28.9024 29.7071 29.2929C29.3166 29.6834 28.6834 29.6834 28.2929 29.2929L25.7071 26.7071C25.3166 26.3166 25.3166 25.6834 25.7071 25.2929Z" fill="white"/>
</svg>
